HIERARCHY
ROOT Hips
{
	OFFSET 39.071800 -4.350876 98.803398
	CHANNELS 6 Xposition Yposition Zposition Xrotation Yrotation Zrotation
	JOINT spine
	{
		OFFSET 0.000000 -0.477353 8.301033
		CHANNELS 3 Xrotation Yrotation Zrotation
		JOINT spine1
		{
			OFFSET 0.000000 -0.000001 10.456497
			CHANNELS 3 Xrotation Yrotation Zrotation
			JOINT spine2
			{
				OFFSET 0.000000 -0.000002 10.019203
				CHANNELS 3 Xrotation Yrotation Zrotation
				JOINT Neck
				{
					OFFSET 0.000000 -1.226414 25.723503
					CHANNELS 3 Xrotation Yrotation Zrotation
					JOINT Head
					{
						OFFSET 0.000000 -0.000001 7.771744
						CHANNELS 3 Xrotation Yrotation Zrotation
						End Site
						{
							OFFSET 0.000000 6.203937 18.811996
						}
					}
				}
				JOINT RightShoulder
				{
					OFFSET -4.218800 0.587438 10.820000
					CHANNELS 3 Xrotation Yrotation Zrotation
					JOINT RightArm
					{
						OFFSET 0.000000 -0.000002 14.191406
						CHANNELS 3 Xrotation Yrotation Zrotation
						JOINT RightArmRoll
						{
							OFFSET 0.000000 -0.000001 7.164078
							CHANNELS 3 Xrotation Yrotation Zrotation
							JOINT RightForeArm
							{
								OFFSET 0.000000 -0.000003 20.866501
								CHANNELS 3 Xrotation Yrotation Zrotation
								JOINT RightForeArmRoll
								{
									OFFSET 0.000000 -0.000001 8.039215
									CHANNELS 3 Xrotation Yrotation Zrotation
									JOINT RightHand
									{
										OFFSET 0.000000 -0.000003 16.132996
										CHANNELS 3 Xrotation Yrotation Zrotation
										End Site
										{
											OFFSET 0.000000 0.000000 0.100006
										}
									}
								}
							}
						}
					}
				}
				JOINT LeftShoulder
				{
					OFFSET 4.218800 0.587438 10.820000
					CHANNELS 3 Xrotation Yrotation Zrotation
					JOINT LeftArm
					{
						OFFSET 0.000000 -0.000002 14.191406
						CHANNELS 3 Xrotation Yrotation Zrotation
						JOINT LeftArmRoll
						{
							OFFSET 0.000000 -0.000001 7.164078
							CHANNELS 3 Xrotation Yrotation Zrotation
							JOINT LeftForeArm
							{
								OFFSET 0.000000 -0.000003 20.866501
								CHANNELS 3 Xrotation Yrotation Zrotation
								JOINT LeftForeArmRoll
								{
									OFFSET 0.000000 -0.000001 8.039215
									CHANNELS 3 Xrotation Yrotation Zrotation
									JOINT LeftHand
									{
										OFFSET 0.000000 -0.000003 16.132996
										CHANNELS 3 Xrotation Yrotation Zrotation
										End Site
										{
											OFFSET 0.000000 0.000000 0.100006
										}
									}
								}
							}
						}
					}
				}
			}
		}
	}
	JOINT RightUpLeg
	{
		OFFSET -7.357731 1.131810 -1.349213
		CHANNELS 3 Xrotation Yrotation Zrotation
		JOINT RightUpLegRoll
		{
			OFFSET 0.000000 -0.000003 18.916801
			CHANNELS 3 Xrotation Yrotation Zrotation
			JOINT RightLeg
			{
				OFFSET 0.000000 0.000004 -23.425598
				CHANNELS 3 Xrotation Yrotation Zrotation
				JOINT RightLegRoll
				{
					OFFSET 0.000000 -0.000004 23.502304
					CHANNELS 3 Xrotation Yrotation Zrotation
					JOINT RightFoot
					{
						OFFSET 0.000000 -0.000003 19.561707
						CHANNELS 3 Xrotation Yrotation Zrotation
						JOINT RightToeBase
						{
							OFFSET 0.000000 -0.000003 16.352600
							CHANNELS 3 Xrotation Yrotation Zrotation
							End Site
							{
								OFFSET 0.006931 0.912836 7.919434
							}
						}
					}
				}
			}
		}
	}
	JOINT LeftUpLeg
	{
		OFFSET 7.357731 1.131810 -1.349213
		CHANNELS 3 Xrotation Yrotation Zrotation
		JOINT LeftUpLegRoll
		{
			OFFSET 0.000000 -0.000003 18.916901
			CHANNELS 3 Xrotation Yrotation Zrotation
			JOINT LeftLeg
			{
				OFFSET 0.000000 -0.000004 23.425499
				CHANNELS 3 Xrotation Yrotation Zrotation
				JOINT LeftLegRoll
				{
					OFFSET 0.000000 -0.000004 23.719498
					CHANNELS 3 Xrotation Yrotation Zrotation
					JOINT LeftFoot
					{
						OFFSET 0.000000 -0.000003 19.344406
						CHANNELS 3 Xrotation Yrotation Zrotation
						JOINT LeftToeBase
						{
							OFFSET 0.000000 -0.000003 16.352600
							CHANNELS 3 Xrotation Yrotation Zrotation
							End Site
							{
								OFFSET -0.031063 0.912836 7.919434
							}
						}
					}
				}
			}
		}
	}
}
MOTION
Frames: 10
Frame Time: 0.041667
39.031502 -4.234145 98.790512 -2.693114 -0.687165 0.109822 -1.398483 -0.099811 0.112297 1.199138 -0.202157 0.221008 2.844208 -0.199495 0.223414 24.707702 4.095578 -1.291257 -9.982609 -2.885845 -0.999660 -2.299779 -73.074643 -4.179048 -71.928558 -114.159584 -44.663881 0.000007 -0.000021 0.000001 0.052622 -7.160009 -0.061986 -0.000001 -0.000006 -3.072402 -5.000182 -7.999093 0.000124 4.262355 67.595527 -3.704446 -47.191775 103.755881 27.033918 0.000001 -0.000000 -0.000002 2.374933 8.845866 0.395561 -0.000003 -0.000005 3.000000 -5.000220 7.998891 -0.000137 1.386362 -175.941179 1.115695 -179.999991 0.000006 -1.099000 174.495419 -3.612306 -0.622888 0.000003 0.000001 0.052872 68.859570 6.892039 2.154603 25.456957 -7.355614 0.000010 2.073764 176.393365 0.966181 -0.000005 -0.000004 -1.169140 -8.301647 3.517002 0.918906 -0.000008 -0.000003 -0.109350 68.552095 -6.911427 -2.093853 25.456959 7.355615 -0.000000 
39.029800 -4.234893 98.793510 -2.694728 -0.688944 0.112675 -1.398983 -0.099224 0.112140 1.198627 -0.202453 0.221803 2.843707 -0.199782 0.224212 24.709859 4.088059 -1.294177 -9.970345 -2.879166 -1.002708 -2.309875 -73.074029 -4.189972 -71.974027 -114.193926 -44.730779 0.000006 -0.000020 0.000003 0.052620 -7.166797 -0.064842 -0.000002 -0.000006 -3.072402 -5.000183 -7.999094 0.000125 4.288926 67.591525 -3.734676 -47.220660 103.777922 27.106154 -0.000001 -0.000001 -0.000002 2.436226 8.867696 0.390887 -0.000001 -0.000005 3.000000 -5.000220 7.998891 -0.000137 1.389147 -175.941192 1.112633 -179.999991 0.000005 -1.099000 174.504134 -3.608375 -0.621957 0.000003 0.000001 0.052872 68.858293 6.892034 2.154681 25.456957 -7.355614 0.000010 2.070640 176.397353 0.970452 -0.000005 -0.000004 -1.169140 -8.302421 3.515243 0.918990 -0.000008 -0.000003 -0.109350 68.553468 -6.911448 -2.093671 25.456959 7.355614 0.000000 
39.031502 -4.237033 98.791306 -2.696399 -0.690724 0.115454 -1.399505 -0.098596 0.111972 1.198108 -0.202776 0.222619 2.843177 -0.200094 0.225032 24.711734 4.080904 -1.297140 -9.957606 -2.872886 -1.005782 -2.320120 -73.073011 -4.201032 -72.018505 -114.228931 -44.797954 0.000006 -0.000019 0.000004 0.052623 -7.174487 -0.067966 -0.000002 -0.000006 -3.072399 -5.000182 -7.999092 0.000125 4.316099 67.587707 -3.765566 -47.247984 103.799614 27.176676 0.000002 -0.000000 0.000001 2.497478 8.889515 0.386162 -0.000004 -0.000005 3.000001 -5.000221 7.998891 -0.000137 1.391884 -175.941206 1.109446 -179.999991 0.000005 -1.099000 174.512645 -3.604456 -0.622038 0.000003 0.000001 0.052872 68.857350 6.892047 2.154641 25.456959 -7.355615 0.000009 2.067876 176.400331 0.974643 -0.000005 -0.000004 -1.169140 -8.302757 3.513549 0.919064 -0.000007 -0.000003 -0.109350 68.554732 -6.911424 -2.093487 25.456962 7.355614 -0.000001 
39.036800 -4.229382 98.821304 -2.698118 -0.692504 0.118179 -1.400041 -0.097939 0.111796 1.197577 -0.203119 0.223451 2.842647 -0.200428 0.225868 24.713513 4.074008 -1.300142 -9.944503 -2.866884 -1.008871 -2.330493 -73.071898 -4.212213 -72.062047 -114.264386 -44.864869 0.000007 -0.000020 0.000000 0.052623 -7.182808 -0.071285 -0.000003 -0.000006 -3.072404 -5.000186 -7.999094 0.000123 4.343681 67.583854 -3.796899 -47.274376 103.821232 27.246157 0.000002 0.000001 0.000001 2.558686 8.911322 0.381387 -0.000003 -0.000005 3.000000 -5.000221 7.998890 -0.000136 1.394613 -175.941206 1.106170 -179.999991 0.000005 -1.099000 174.521005 -3.599528 -0.621036 0.000003 0.000001 0.052872 68.856510 6.892031 2.154691 25.456955 -7.355617 0.000010 2.065368 176.403337 0.978809 -0.000005 -0.000004 -1.169140 -8.302804 3.511876 0.919130 -0.000007 -0.000003 -0.109350 68.555893 -6.911432 -2.093216 25.456957 7.355614 -0.000000 
39.042599 -4.214736 98.817299 -2.699858 -0.694285 0.120874 -1.400572 -0.097266 0.111616 1.197037 -0.203474 0.224291 2.842107 -0.200772 0.226712 24.715197 4.067251 -1.303161 -9.931227 -2.861041 -1.011972 -2.340932 -73.070675 -4.223447 -72.105207 -114.300108 -44.931843 0.000007 -0.000020 0.000004 0.052622 -7.191489 -0.074713 -0.000002 -0.000005 -3.072400 -5.000181 -7.999092 0.000123 4.371511 67.580105 -3.828501 -47.299818 103.842767 27.314500 0.000001 -0.000001 -0.000001 2.619879 8.933125 0.376558 -0.000003 -0.000005 2.999999 -5.000219 7.998890 -0.000137 1.397309 -175.941206 1.102850 -179.999991 0.000005 -1.099000 174.529269 -3.594601 -0.621038 0.000004 0.000001 0.052872 68.855779 6.892059 2.154643 25.456955 -7.355615 0.000010 2.062983 176.407326 0.982993 -0.000005 -0.000004 -1.169140 -8.302666 3.510225 0.919189 -0.000008 -0.000003 -0.109350 68.556951 -6.911429 -2.092951 25.456957 7.355614 -0.000001 
39.045101 -4.208834 98.792404 -2.701599 -0.696066 0.123562 -1.401112 -0.096589 0.111435 1.196498 -0.203831 0.225134 2.841567 -0.201118 0.227559 24.716890 4.060540 -1.306189 -9.917886 -2.855236 -1.015078 -2.351375 -73.069364 -4.234693 -72.148115 -114.335973 -44.998642 0.000005 -0.000021 0.000003 0.052621 -7.200258 -0.078164 -0.000001 -0.000006 -3.072399 -5.000182 -7.999093 0.000125 4.399381 67.576341 -3.860148 -47.325483 103.864235 27.383063 -0.000000 0.000001 -0.000000 2.681070 8.954928 0.371681 -0.000004 -0.000005 3.000001 -5.000218 7.998891 -0.000138 1.400014 -175.941206 1.099512 -179.999991 0.000006 -1.099000 174.537507 -3.590667 -0.620141 0.000003 0.000001 0.052872 68.855130 6.892021 2.154675 25.456959 -7.355616 0.000011 2.060641 176.410303 0.987137 -0.000005 -0.000004 -1.169140 -8.302502 3.508584 0.919248 -0.000007 -0.000003 -0.109350 68.557996 -6.911430 -2.092786 25.456959 7.355615 -0.000001 
39.045200 -4.200676 98.802002 -2.703342 -0.697848 0.126264 -1.401654 -0.095920 0.111255 1.195968 -0.204181 0.225972 2.841037 -0.201460 0.228402 24.718670 4.053752 -1.309211 -9.904648 -2.849351 -1.018181 -2.361790 -73.068141 -4.245903 -72.190810 -114.371750 -45.065042 0.000006 -0.000020 0.000003 0.052620 -7.208858 -0.081564 -0.000001 -0.000006 -3.072402 -5.000181 -7.999092 0.000122 4.427141 67.572591 -3.891673 -47.351045 103.885852 27.451527 0.000000 -0.000000 -0.000001 2.742281 8.976726 0.366760 -0.000002 -0.000005 3.000001 -5.000221 7.998891 -0.000136 1.402721 -175.941220 1.096202 -179.999991 0.000005 -1.099000 174.545798 -3.585738 -0.619148 0.000003 0.000001 0.052872 68.854290 6.892041 2.154632 25.456957 -7.355617 0.000011 2.058226 176.414306 0.991321 -0.000005 -0.000004 -1.169140 -8.302407 3.506931 0.919309 -0.000007 -0.000003 -0.109350 68.559048 -6.911429 -2.092520 25.456959 7.355614 -0.000001 
39.048199 -4.192836 98.798790 -2.705043 -0.699628 0.129005 -1.402186 -0.095271 0.111082 1.195438 -0.204519 0.226799 2.840508 -0.201787 0.229233 24.720449 4.046774 -1.312195 -9.891647 -2.843277 -1.021277 -2.372116 -73.067021 -4.257039 -72.234059 -114.407233 -45.131486 0.000008 -0.000021 0.000003 0.052621 -7.216999 -0.084828 -0.000002 -0.000006 -3.072402 -5.000182 -7.999093 0.000123 4.454556 67.568726 -3.922828 -47.377115 103.907627 27.520654 0.000001 0.000001 -0.000001 2.803532 8.998545 0.361797 -0.000003 -0.000005 3.000002 -5.000219 7.998891 -0.000138 1.405445 -175.941220 1.092954 -179.999991 0.000005 -1.099000 174.554200 -3.580811 -0.619146 0.000003 0.000001 0.052872 68.853450 6.892027 2.154681 25.456957 -7.355614 0.000011 2.055631 176.417298 0.995491 -0.000005 -0.000005 -1.169140 -8.302543 3.505248 0.919376 -0.000006 -0.000003 -0.109350 68.560216 -6.911433 -2.092248 25.456959 7.355613 -0.000000 
39.052204 -4.186464 98.800606 -2.706693 -0.701409 0.131805 -1.402693 -0.094655 0.110916 1.194917 -0.204834 0.227609 2.839988 -0.202092 0.230046 24.722420 4.039507 -1.315143 -9.879052 -2.836883 -1.024360 -2.382322 -73.066201 -4.268064 -72.277492 -114.442258 -45.197117 0.000007 -0.000021 0.000002 0.052621 -7.224418 -0.087873 -0.000002 -0.000005 -3.072400 -5.000182 -7.999095 0.000123 4.481499 67.564771 -3.953465 -47.403975 103.929606 27.590747 0.000001 0.000000 -0.000001 2.864848 9.020360 0.356792 -0.000003 -0.000005 2.999999 -5.000219 7.998890 -0.000138 1.408206 -175.941220 1.089802 -179.999991 0.000005 -1.099000 174.562765 -3.576878 -0.618232 0.000003 0.000001 0.052872 68.852398 6.892033 2.154647 25.456957 -7.355616 0.000011 2.052774 176.420289 0.999697 -0.000005 -0.000004 -1.169140 -8.303019 3.503532 0.919454 -0.000007 -0.000003 -0.109350 68.561480 -6.911450 -2.092072 25.456959 7.355615 -0.000001 
39.047600 -4.176126 98.790100 -2.708282 -0.703188 0.134688 -1.403193 -0.094084 0.110763 1.194407 -0.205119 0.228395 2.839487 -0.202368 0.230835 24.724677 4.031834 -1.318037 -9.866988 -2.830060 -1.027426 -2.392343 -73.065689 -4.278916 -72.321868 -114.476614 -45.262581 0.000006 -0.000020 0.000004 0.052621 -7.230840 -0.090624 -0.000002 -0.000005 -3.072402 -5.000178 -7.999093 0.000125 4.507763 67.560741 -3.983366 -47.431863 103.952023 27.662116 0.000001 0.000000 -0.000000 2.926224 9.042191 0.351746 -0.000003 -0.000004 3.000002 -5.000219 7.998891 -0.000136 1.410991 -175.941233 1.086784 -179.999991 0.000005 -1.099000 174.571576 -3.572945 -0.618303 0.000003 0.000001 0.052872 68.851128 6.892028 2.154627 25.456959 -7.355614 0.000010 2.049517 176.424278 1.003973 -0.000005 -0.000005 -1.169140 -8.303963 3.501751 0.919543 -0.000008 -0.000003 -0.109350 68.563051 -6.911412 -2.091867 25.456960 7.355616 -0.000001 
